<svg data-v-423bf9ae="" xmlns="http://www.w3.org/2000/svg" viewBox="0 0 710.2592546203612 163" class="iconAbove"><!----><!----><!----><g data-v-423bf9ae="" id="4f1a497b-c691-4025-bfe5-14857af817ef" fill="#000000" transform="matrix(5.267422678064663,0,0,5.267422678064663,-2.212304403258372,84.82739079425089)"><path d="M0.42 14.43L0.42 14.43L0.42 14.01L0.42 14.01Q0.42 13.80 0.63 13.80L0.63 13.80L0.72 13.80L0.72 13.80Q1.67 13.75 1.67 12.47L1.67 12.47L1.67 6.32L1.67 6.32Q1.67 4.98 0.66 4.98L0.66 4.98L0.64 4.98L0.64 4.98Q0.43 4.98 0.43 4.77L0.43 4.77L0.43 4.35L0.43 4.35Q0.43 4.14 0.64 4.14L0.64 4.14L5.78 4.14L5.78 4.14Q6.61 4.14 7.32 4.38L7.32 4.38L7.32 4.38Q8.03 4.62 8.50 5.02L8.50 5.02L8.50 5.02Q8.98 5.43 9.25 5.97L9.25 5.97L9.25 5.97Q9.52 6.51 9.52 7.10L9.52 7.10L9.52 7.10Q9.52 7.87 9.11 8.53L9.11 8.53L9.11 8.53Q8.71 9.19 7.85 9.60L7.85 9.60L9.38 12.47L9.38 12.47Q9.52 12.73 9.56 12.80L9.56 12.80L9.56 12.80Q9.60 12.87 9.73 13.08L9.73 13.08L9.73 13.08Q9.86 13.30 9.94 13.37L9.94 13.37L9.94 13.37Q10.02 13.45 10.16 13.58L10.16 13.58L10.16 13.58Q10.30 13.70 10.45 13.75L10.45 13.75L10.45 13.75Q10.60 13.79 10.77 13.80L10.77 13.80L10.86 13.80L10.86 13.80Q11.06 13.80 11.06 14.01L11.06 14.01L11.06 14.43L11.06 14.43Q11.06 14.64 10.86 14.64L10.86 14.64L6.55 14.64L6.55 14.64Q6.34 14.64 6.34 14.43L6.34 14.43L6.34 14.01L6.34 14.01Q6.34 13.80 6.55 13.80L6.55 13.80L6.64 13.80L6.64 13.80Q6.97 13.78 7.15 13.60L7.15 13.60L7.15 13.60Q7.33 13.41 7.33 13.12L7.33 13.12L7.33 13.12Q7.33 12.81 7.14 12.47L7.14 12.47L5.87 10.10L5.87 10.10Q5.44 10.14 4.95 10.14L4.95 10.14L3.90 10.14L3.90 12.47L3.90 12.47Q3.90 13.75 4.85 13.80L4.85 13.80L4.94 13.80L4.94 13.80Q5.15 13.80 5.15 14.01L5.15 14.01L5.15 14.43L5.15 14.43Q5.15 14.64 4.94 14.64L4.94 14.64L0.63 14.64L0.63 14.64Q0.42 14.64 0.42 14.43ZM3.90 4.98L3.90 9.15L4.72 9.15L4.72 9.15Q6.08 9.15 6.75 8.61L6.75 8.61L6.75 8.61Q7.42 8.07 7.42 7.10L7.42 7.10L7.42 7.10Q7.42 6.12 6.82 5.55L6.82 5.55L6.82 5.55Q6.22 4.98 5.17 4.98L5.17 4.98L3.90 4.98ZM11.03 11.08L11.03 11.08L11.03 11.08Q11.03 10.33 11.22 9.71L11.22 9.71L11.22 9.71Q11.41 9.10 11.73 8.69L11.73 8.69L11.73 8.69Q12.04 8.29 12.48 8.01L12.48 8.01L12.48 8.01Q12.91 7.73 13.38 7.61L13.38 7.61L13.38 7.61Q13.85 7.49 14.36 7.49L14.36 7.49L14.36 7.49Q14.90 7.49 15.37 7.67L15.37 7.67L15.37 7.67Q15.85 7.85 16.18 8.13L16.18 8.13L16.18 8.13Q16.52 8.42 16.76 8.78L16.76 8.78L16.76 8.78Q17.00 9.14 17.12 9.50L17.12 9.50L17.12 9.50Q17.24 9.86 17.24 10.19L17.24 10.19L17.24 10.19Q17.24 10.31 17.12 10.36L17.12 10.36L13.06 12.14L13.06 12.14Q13.33 12.79 13.87 13.22L13.87 13.22L13.87 13.22Q14.40 13.64 15.16 13.64L15.16 13.64L15.16 13.64Q15.63 13.64 16.11 13.38L16.11 13.38L16.11 13.38Q16.59 13.13 16.95 12.61L16.95 12.61L16.95 12.61Q16.99 12.55 17.06 12.55L17.06 12.55L17.06 12.55Q17.16 12.55 17.62 12.82L17.62 12.82L17.62 12.82Q17.68 12.86 17.68 12.93L17.68 12.93L17.68 12.93Q17.68 13.02 17.59 13.18L17.59 13.18L17.59 13.18Q16.71 14.81 14.79 14.81L14.79 14.81L14.79 14.81Q13.66 14.81 12.79 14.30L12.79 14.30L12.79 14.30Q11.92 13.79 11.47 12.94L11.47 12.94L11.47 12.94Q11.03 12.10 11.03 11.08ZM13.11 9.05L13.11 9.05L13.11 9.05Q12.76 9.50 12.76 10.20L12.76 10.20L12.76 10.20Q12.76 10.90 12.89 11.27L12.89 11.27L15.14 10.13L15.14 10.13Q15.14 9.47 14.82 9.03L14.82 9.03L14.82 9.03Q14.51 8.59 14.02 8.59L14.02 8.59L14.02 8.59Q13.45 8.59 13.11 9.05ZM18.03 12.33L18.03 12.33L18.03 12.33Q18.03 12.22 18.14 12.15L18.14 12.15L18.57 11.90L18.57 11.90Q18.62 11.87 18.70 11.87L18.70 11.87L18.70 11.87Q18.80 11.87 18.86 11.98L18.86 11.98L18.86 11.98Q20.10 13.87 22.03 13.87L22.03 13.87L22.03 13.87Q23.38 13.87 23.38 13.07L23.38 13.07L23.38 13.07Q23.38 12.95 23.34 12.85L23.34 12.85L23.34 12.85Q23.30 12.74 23.21 12.65L23.21 12.65L23.21 12.65Q23.13 12.56 23.04 12.49L23.04 12.49L23.04 12.49Q22.96 12.41 22.80 12.34L22.80 12.34L22.80 12.34Q22.64 12.26 22.53 12.22L22.53 12.22L22.53 12.22Q22.43 12.17 22.22 12.10L22.22 12.10L22.22 12.10Q22.01 12.04 21.91 12.00L21.91 12.00L21.91 12.00Q21.80 11.97 21.57 11.90L21.57 11.90L21.57 11.90Q21.34 11.84 21.25 11.81L21.25 11.81L21.25 11.81Q20.58 11.61 20.10 11.39L20.10 11.39L20.10 11.39Q19.61 11.16 19.33 10.93L19.33 10.93L19.33 10.93Q19.04 10.71 18.87 10.44L18.87 10.44L18.87 10.44Q18.70 10.17 18.64 9.93L18.64 9.93L18.64 9.93Q18.58 9.69 18.58 9.39L18.58 9.39L18.58 9.39Q18.58 8.54 19.24 8.00L19.24 8.00L19.24 8.00Q19.90 7.47 20.99 7.47L20.99 7.47L20.99 7.47Q21.56 7.47 22.07 7.62L22.07 7.62L22.07 7.62Q22.57 7.77 22.84 7.93L22.84 7.93L22.84 7.93Q22.88 7.95 22.90 7.95L22.90 7.95L22.90 7.95Q23.00 7.95 22.92 7.66L22.92 7.66L22.92 7.66Q22.91 7.59 22.91 7.56L22.91 7.56L22.91 7.56Q22.91 7.42 23.08 7.42L23.08 7.42L23.45 7.42L23.45 7.42Q23.63 7.42 23.69 7.58L23.69 7.58L24.39 9.36L24.39 9.36Q24.42 9.45 24.42 9.50L24.42 9.50L24.42 9.50Q24.42 9.59 24.32 9.65L24.32 9.65L23.97 9.83L23.97 9.83Q23.91 9.86 23.86 9.86L23.86 9.86L23.86 9.86Q23.78 9.86 23.69 9.75L23.69 9.75L23.69 9.75Q23.10 9.02 22.42 8.67L22.42 8.67L22.42 8.67Q21.75 8.32 21.18 8.32L21.18 8.32L21.18 8.32Q20.75 8.32 20.48 8.49L20.48 8.49L20.48 8.49Q20.20 8.66 20.20 9.03L20.20 9.03L20.20 9.03Q20.20 9.25 20.33 9.42L20.33 9.42L20.33 9.42Q20.45 9.60 20.70 9.72L20.70 9.72L20.70 9.72Q20.95 9.84 21.18 9.92L21.18 9.92L21.18 9.92Q21.41 10.00 21.76 10.09L21.76 10.09L21.76 10.09Q22.93 10.39 23.40 10.59L23.40 10.59L23.40 10.59Q24.77 11.16 24.91 12.26L24.91 12.26L24.91 12.26Q24.92 12.39 24.92 12.53L24.92 12.53L24.92 12.53Q24.92 13.53 24.12 14.17L24.12 14.17L24.12 14.17Q23.32 14.81 21.97 14.81L21.97 14.81L21.97 14.81Q21.09 14.81 20.35 14.44L20.35 14.44L20.35 14.44Q20.27 14.41 20.23 14.41L20.23 14.41L20.23 14.41Q20.10 14.41 20.16 14.62L20.16 14.62L20.16 14.62Q20.18 14.68 20.18 14.73L20.18 14.73L20.18 14.73Q20.18 14.85 20.02 14.84L20.02 14.84L19.52 14.84L19.52 14.84Q19.35 14.84 19.27 14.70L19.27 14.70L18.06 12.44L18.06 12.44Q18.03 12.37 18.03 12.33ZM25.48 11.08L25.48 11.08L25.48 11.08Q25.48 10.33 25.68 9.71L25.68 9.71L25.68 9.71Q25.87 9.10 26.19 8.69L26.19 8.69L26.19 8.69Q26.50 8.29 26.94 8.01L26.94 8.01L26.94 8.01Q27.37 7.73 27.84 7.61L27.84 7.61L27.84 7.61Q28.31 7.49 28.82 7.49L28.82 7.49L28.82 7.49Q29.35 7.49 29.83 7.67L29.83 7.67L29.83 7.67Q30.30 7.85 30.64 8.13L30.64 8.13L30.64 8.13Q30.97 8.42 31.22 8.78L31.22 8.78L31.22 8.78Q31.46 9.14 31.58 9.50L31.58 9.50L31.58 9.50Q31.70 9.86 31.70 10.19L31.70 10.19L31.70 10.19Q31.70 10.31 31.58 10.36L31.58 10.36L27.52 12.14L27.52 12.14Q27.79 12.79 28.32 13.22L28.32 13.22L28.32 13.22Q28.86 13.64 29.62 13.64L29.62 13.64L29.62 13.64Q30.09 13.64 30.57 13.38L30.57 13.38L30.57 13.38Q31.05 13.13 31.40 12.61L31.40 12.61L31.40 12.61Q31.45 12.55 31.52 12.55L31.52 12.55L31.52 12.55Q31.62 12.55 32.08 12.82L32.08 12.82L32.08 12.82Q32.14 12.86 32.14 12.93L32.14 12.93L32.14 12.93Q32.14 13.02 32.05 13.18L32.05 13.18L32.05 13.18Q31.17 14.81 29.24 14.81L29.24 14.81L29.24 14.81Q28.12 14.81 27.25 14.30L27.25 14.30L27.25 14.30Q26.38 13.79 25.93 12.94L25.93 12.94L25.93 12.94Q25.48 12.10 25.48 11.08ZM27.57 9.05L27.57 9.05L27.57 9.05Q27.22 9.50 27.22 10.20L27.22 10.20L27.22 10.20Q27.22 10.90 27.35 11.27L27.35 11.27L29.60 10.13L29.60 10.13Q29.60 9.47 29.28 9.03L29.28 9.03L29.28 9.03Q28.96 8.59 28.48 8.59L28.48 8.59L28.48 8.59Q27.91 8.59 27.57 9.05ZM32.42 14.43L32.42 14.43L32.42 14.01L32.42 14.01Q32.42 13.80 32.62 13.80L32.62 13.80L32.66 13.80L32.66 13.80Q33.15 13.80 33.41 13.43L33.41 13.43L33.41 13.43Q33.67 13.06 33.67 12.47L33.67 12.47L33.67 10.71L33.67 10.71Q33.67 10.37 33.65 10.14L33.65 10.14L33.65 10.14Q33.63 9.92 33.55 9.67L33.55 9.67L33.55 9.67Q33.48 9.41 33.30 9.27L33.30 9.27L33.30 9.27Q33.12 9.13 32.85 9.10L32.85 9.10L32.85 9.10Q32.67 9.08 32.68 8.92L32.68 8.92L32.68 8.44L32.68 8.44Q32.68 8.29 32.88 8.26L32.88 8.26L32.88 8.26Q33.78 8.11 34.54 7.81L34.54 7.81L34.54 7.81Q35.29 7.50 35.66 7.24L35.66 7.24L35.66 7.24Q35.70 7.21 35.72 7.21L35.72 7.21L35.75 7.21L35.75 7.21Q35.77 7.21 35.77 7.23L35.77 7.23L35.44 9.11L35.44 9.11Q35.81 8.32 36.47 7.89L36.47 7.89L36.47 7.89Q37.13 7.46 37.90 7.46L37.90 7.46L37.90 7.46Q38.59 7.46 39.04 7.84L39.04 7.84L39.04 7.84Q39.48 8.22 39.48 8.91L39.48 8.91L39.48 8.91Q39.48 9.28 39.42 9.49L39.42 9.49L39.42 9.49Q39.35 9.70 39.12 9.80L39.12 9.80L37.80 10.34L37.80 10.34Q37.74 10.36 37.68 10.36L37.68 10.36L37.68 10.36Q37.55 10.36 37.55 10.23L37.55 10.23L37.55 10.23Q37.55 10.16 37.58 10.10L37.58 10.10L37.58 10.10Q37.71 9.79 37.71 9.41L37.71 9.41L37.71 9.41Q37.71 9.04 37.53 8.86L37.53 8.86L37.53 8.86Q37.34 8.68 37.04 8.68L37.04 8.68L37.04 8.68Q36.61 8.68 36.22 9.06L36.22 9.06L36.22 9.06Q35.83 9.44 35.64 9.89L35.64 9.89L35.64 12.47L35.64 12.47Q35.64 13.06 35.91 13.43L35.91 13.43L35.91 13.43Q36.18 13.80 36.67 13.80L36.67 13.80L36.70 13.80L36.70 13.80Q36.91 13.80 36.91 14.01L36.91 14.01L36.91 14.43L36.91 14.43Q36.91 14.64 36.70 14.64L36.70 14.64L32.62 14.64L32.62 14.64Q32.42 14.64 32.42 14.43ZM39.98 8.26L39.98 8.26L39.98 7.85L39.98 7.85Q39.98 7.64 40.20 7.64L40.20 7.64L43.43 7.64L43.43 7.64Q43.63 7.64 43.63 7.85L43.63 7.85L43.63 8.26L43.63 8.26Q43.63 8.48 43.43 8.48L43.43 8.48L43.40 8.48L43.40 8.48Q42.93 8.48 42.93 8.89L42.93 8.89L42.93 8.89Q42.93 9.23 43.21 9.81L43.21 9.81L44.50 12.54L45.68 9.81L45.68 9.81Q46.02 9.05 46.02 8.77L46.02 8.77L46.02 8.77Q46.02 8.48 45.71 8.48L45.71 8.48L45.44 8.48L45.44 8.48Q45.23 8.48 45.23 8.26L45.23 8.26L45.23 7.85L45.23 7.85Q45.23 7.64 45.44 7.64L45.44 7.64L48.00 7.64L48.00 7.64Q48.21 7.64 48.21 7.85L48.21 7.85L48.21 8.26L48.21 8.26Q48.21 8.48 48.00 8.48L48.00 8.48L47.80 8.48L47.80 8.48Q47.57 8.48 47.39 8.66L47.39 8.66L47.39 8.66Q47.22 8.84 46.98 9.35L46.98 9.35L44.63 14.49L44.63 14.49Q44.56 14.64 44.38 14.64L44.38 14.64L43.64 14.64L43.64 14.64Q43.46 14.64 43.39 14.49L43.39 14.49L41.04 9.36L41.04 9.36Q40.79 8.83 40.64 8.65L40.64 8.65L40.64 8.65Q40.48 8.48 40.23 8.48L40.23 8.48L40.20 8.48L40.20 8.48Q39.98 8.48 39.98 8.26ZM48.31 11.08L48.31 11.08L48.31 11.08Q48.31 10.33 48.50 9.71L48.50 9.71L48.50 9.71Q48.69 9.10 49.01 8.69L49.01 8.69L49.01 8.69Q49.33 8.29 49.76 8.01L49.76 8.01L49.76 8.01Q50.20 7.73 50.66 7.61L50.66 7.61L50.66 7.61Q51.13 7.49 51.65 7.49L51.65 7.49L51.65 7.49Q52.18 7.49 52.65 7.67L52.65 7.67L52.65 7.67Q53.13 7.85 53.46 8.13L53.46 8.13L53.46 8.13Q53.80 8.42 54.04 8.78L54.04 8.78L54.04 8.78Q54.28 9.14 54.40 9.50L54.40 9.50L54.40 9.50Q54.52 9.86 54.52 10.19L54.52 10.19L54.52 10.19Q54.52 10.31 54.41 10.36L54.41 10.36L50.35 12.14L50.35 12.14Q50.61 12.79 51.15 13.22L51.15 13.22L51.15 13.22Q51.69 13.64 52.45 13.64L52.45 13.64L52.45 13.64Q52.92 13.64 53.40 13.38L53.40 13.38L53.40 13.38Q53.87 13.13 54.23 12.61L54.23 12.61L54.23 12.61Q54.27 12.55 54.35 12.55L54.35 12.55L54.35 12.55Q54.44 12.55 54.91 12.82L54.91 12.82L54.91 12.82Q54.96 12.86 54.96 12.93L54.96 12.93L54.96 12.93Q54.96 13.02 54.87 13.18L54.87 13.18L54.87 13.18Q53.99 14.81 52.07 14.81L52.07 14.81L52.07 14.81Q50.94 14.81 50.07 14.30L50.07 14.30L50.07 14.30Q49.21 13.79 48.76 12.94L48.76 12.94L48.76 12.94Q48.31 12.10 48.31 11.08ZM50.39 9.05L50.39 9.05L50.39 9.05Q50.05 9.50 50.05 10.20L50.05 10.20L50.05 10.20Q50.05 10.90 50.18 11.27L50.18 11.27L52.42 10.13L52.42 10.13Q52.42 9.47 52.11 9.03L52.11 9.03L52.11 9.03Q51.79 8.59 51.30 8.59L51.30 8.59L51.30 8.59Q50.74 8.59 50.39 9.05ZM55.43 11.13L55.43 11.13L55.43 11.13Q55.43 10.19 55.70 9.47L55.70 9.47L55.70 9.47Q55.97 8.75 56.44 8.32L56.44 8.32L56.44 8.32Q56.90 7.90 57.48 7.68L57.48 7.68L57.48 7.68Q58.05 7.46 58.71 7.46L58.71 7.46L58.71 7.46Q59.77 7.46 60.53 8.11L60.53 8.11L60.53 7.23L60.53 7.23Q60.53 6.88 60.50 6.66L60.50 6.66L60.50 6.66Q60.48 6.43 60.40 6.18L60.40 6.18L60.40 6.18Q60.32 5.93 60.14 5.78L60.14 5.78L60.14 5.78Q59.96 5.64 59.69 5.61L59.69 5.61L59.69 5.61Q59.51 5.59 59.53 5.43L59.53 5.43L59.53 4.96L59.53 4.96Q59.53 4.87 59.57 4.84L59.57 4.84L59.57 4.84Q59.62 4.81 59.73 4.77L59.73 4.77L59.73 4.77Q61.29 4.25 62.36 3.47L62.36 3.47L62.36 3.47Q62.41 3.45 62.43 3.45L62.43 3.45L62.46 3.45L62.46 3.45Q62.47 3.45 62.47 3.47L62.47 3.47L62.47 12.05L62.47 12.05Q62.48 12.34 62.51 12.54L62.51 12.54L62.51 12.54Q62.55 12.75 62.63 12.95L62.63 12.95L62.63 12.95Q62.72 13.15 62.89 13.27L62.89 13.27L62.89 13.27Q63.05 13.39 63.30 13.42L63.30 13.42L63.30 13.42Q63.48 13.44 63.46 13.60L63.46 13.60L63.46 14.08L63.46 14.08Q63.46 14.26 63.27 14.26L63.27 14.26L63.27 14.26Q62.62 14.26 62.10 14.35L62.10 14.35L62.10 14.35Q61.58 14.44 61.36 14.53L61.36 14.53L61.36 14.53Q61.13 14.61 60.69 14.80L60.69 14.80L60.69 14.80Q60.63 14.83 60.57 14.83L60.57 14.83L60.53 14.83L60.53 14.83Q60.50 14.83 60.52 14.78L60.52 14.78L60.68 13.54L60.68 13.54Q60.60 13.72 60.47 13.90L60.47 13.90L60.47 13.90Q60.34 14.09 60.10 14.31L60.10 14.31L60.10 14.31Q59.86 14.54 59.45 14.68L59.45 14.68L59.45 14.68Q59.04 14.83 58.54 14.83L58.54 14.83L58.54 14.83Q58.14 14.83 57.73 14.71L57.73 14.71L57.73 14.71Q57.31 14.59 56.90 14.30L56.90 14.30L56.90 14.30Q56.48 14.01 56.16 13.60L56.16 13.60L56.16 13.60Q55.84 13.19 55.63 12.55L55.63 12.55L55.63 12.55Q55.43 11.91 55.43 11.13ZM57.24 10.68L57.24 10.68L57.24 10.68Q57.24 12.01 57.77 12.80L57.77 12.80L57.77 12.80Q58.30 13.59 59.17 13.59L59.17 13.59L59.17 13.59Q59.47 13.59 59.71 13.47L59.71 13.47L59.71 13.47Q59.95 13.34 60.09 13.17L60.09 13.17L60.09 13.17Q60.24 13.00 60.34 12.83L60.34 12.83L60.34 12.83Q60.44 12.65 60.48 12.53L60.48 12.53L60.52 12.41L60.52 10.11L60.52 10.11Q60.44 9.42 60.03 8.98L60.03 8.98L60.03 8.98Q59.63 8.53 58.96 8.53L58.96 8.53L58.96 8.53Q57.24 8.53 57.24 10.68ZM67.59 14.43L67.59 14.43L67.59 14.01L67.59 14.01Q67.59 13.80 67.81 13.80L67.81 13.80L67.90 13.80L67.90 13.80Q68.84 13.75 68.84 12.47L68.84 12.47L68.84 6.32L68.84 6.32Q68.84 4.98 67.83 4.98L67.83 4.98L67.82 4.98L67.82 4.98Q67.61 4.98 67.61 4.77L67.61 4.77L67.61 4.35L67.61 4.35Q67.61 4.14 67.82 4.14L67.82 4.14L72.96 4.14L72.96 4.14Q73.79 4.14 74.49 4.38L74.49 4.38L74.49 4.38Q75.20 4.62 75.68 5.02L75.68 5.02L75.68 5.02Q76.16 5.43 76.43 5.97L76.43 5.97L76.43 5.97Q76.69 6.51 76.69 7.10L76.69 7.10L76.69 7.10Q76.69 7.87 76.29 8.53L76.29 8.53L76.29 8.53Q75.89 9.19 75.03 9.60L75.03 9.60L76.56 12.47L76.56 12.47Q76.69 12.73 76.73 12.80L76.73 12.80L76.73 12.80Q76.77 12.87 76.90 13.08L76.90 13.08L76.90 13.08Q77.03 13.30 77.12 13.37L77.12 13.37L77.12 13.37Q77.20 13.45 77.34 13.58L77.34 13.58L77.34 13.58Q77.48 13.70 77.63 13.75L77.63 13.75L77.63 13.75Q77.77 13.79 77.95 13.80L77.95 13.80L78.03 13.80L78.03 13.80Q78.24 13.80 78.24 14.01L78.24 14.01L78.24 14.43L78.24 14.43Q78.24 14.64 78.03 14.64L78.03 14.64L73.73 14.64L73.73 14.64Q73.51 14.64 73.51 14.43L73.51 14.43L73.51 14.01L73.51 14.01Q73.51 13.80 73.73 13.80L73.73 13.80L73.81 13.80L73.81 13.80Q74.15 13.78 74.33 13.60L74.33 13.60L74.33 13.60Q74.50 13.41 74.50 13.12L74.50 13.12L74.50 13.12Q74.50 12.81 74.32 12.47L74.32 12.47L73.05 10.10L73.05 10.10Q72.62 10.14 72.13 10.14L72.13 10.14L71.08 10.14L71.08 12.47L71.08 12.47Q71.08 13.75 72.03 13.80L72.03 13.80L72.11 13.80L72.11 13.80Q72.32 13.80 72.32 14.01L72.32 14.01L72.32 14.43L72.32 14.43Q72.32 14.64 72.11 14.64L72.11 14.64L67.81 14.64L67.81 14.64Q67.59 14.64 67.59 14.43ZM71.08 4.98L71.08 9.15L71.89 9.15L71.89 9.15Q73.25 9.15 73.92 8.61L73.92 8.61L73.92 8.61Q74.59 8.07 74.59 7.10L74.59 7.10L74.59 7.10Q74.59 6.12 74.00 5.55L74.00 5.55L74.00 5.55Q73.40 4.98 72.35 4.98L72.35 4.98L71.08 4.98ZM78.20 11.08L78.20 11.08L78.20 11.08Q78.20 10.33 78.39 9.71L78.39 9.71L78.39 9.71Q78.59 9.10 78.90 8.69L78.90 8.69L78.90 8.69Q79.22 8.29 79.66 8.01L79.66 8.01L79.66 8.01Q80.09 7.73 80.56 7.61L80.56 7.61L80.56 7.61Q81.03 7.49 81.54 7.49L81.54 7.49L81.54 7.49Q82.07 7.49 82.55 7.67L82.55 7.67L82.55 7.67Q83.02 7.85 83.36 8.13L83.36 8.13L83.36 8.13Q83.69 8.42 83.94 8.78L83.94 8.78L83.94 8.78Q84.18 9.14 84.30 9.50L84.30 9.50L84.30 9.50Q84.42 9.86 84.42 10.19L84.42 10.19L84.42 10.19Q84.42 10.31 84.30 10.36L84.30 10.36L80.24 12.14L80.24 12.14Q80.51 12.79 81.04 13.22L81.04 13.22L81.04 13.22Q81.58 13.64 82.34 13.64L82.34 13.64L82.34 13.64Q82.81 13.64 83.29 13.38L83.29 13.38L83.29 13.38Q83.77 13.13 84.12 12.61L84.12 12.61L84.12 12.61Q84.16 12.55 84.24 12.55L84.24 12.55L84.24 12.55Q84.33 12.55 84.80 12.82L84.80 12.82L84.80 12.82Q84.85 12.86 84.85 12.93L84.85 12.93L84.85 12.93Q84.85 13.02 84.77 13.18L84.77 13.18L84.77 13.18Q83.88 14.81 81.96 14.81L81.96 14.81L81.96 14.81Q80.83 14.81 79.97 14.30L79.97 14.30L79.97 14.30Q79.10 13.79 78.65 12.94L78.65 12.94L78.65 12.94Q78.20 12.10 78.20 11.08ZM80.28 9.05L80.28 9.05L80.28 9.05Q79.94 9.50 79.94 10.20L79.94 10.20L79.94 10.20Q79.94 10.90 80.07 11.27L80.07 11.27L82.32 10.13L82.32 10.13Q82.32 9.47 82.00 9.03L82.00 9.03L82.00 9.03Q81.68 8.59 81.20 8.59L81.20 8.59L81.20 8.59Q80.63 8.59 80.28 9.05ZM85.20 12.33L85.20 12.33L85.20 12.33Q85.20 12.22 85.32 12.15L85.32 12.15L85.75 11.90L85.75 11.90Q85.80 11.87 85.87 11.87L85.87 11.87L85.87 11.87Q85.98 11.87 86.04 11.98L86.04 11.98L86.04 11.98Q87.27 13.87 89.21 13.87L89.21 13.87L89.21 13.87Q90.56 13.87 90.56 13.07L90.56 13.07L90.56 13.07Q90.56 12.95 90.52 12.85L90.52 12.85L90.52 12.85Q90.48 12.74 90.39 12.65L90.39 12.65L90.39 12.65Q90.30 12.56 90.22 12.49L90.22 12.49L90.22 12.49Q90.14 12.41 89.98 12.34L89.98 12.34L89.98 12.34Q89.82 12.26 89.71 12.22L89.71 12.22L89.71 12.22Q89.61 12.17 89.40 12.10L89.40 12.10L89.40 12.10Q89.19 12.04 89.08 12.00L89.08 12.00L89.08 12.00Q88.98 11.97 88.75 11.90L88.75 11.90L88.75 11.90Q88.52 11.84 88.43 11.81L88.43 11.81L88.43 11.81Q87.76 11.61 87.27 11.39L87.27 11.39L87.27 11.39Q86.79 11.16 86.50 10.93L86.50 10.93L86.50 10.93Q86.21 10.71 86.04 10.44L86.04 10.44L86.04 10.44Q85.87 10.17 85.81 9.93L85.81 9.93L85.81 9.93Q85.76 9.69 85.76 9.39L85.76 9.39L85.76 9.39Q85.76 8.54 86.42 8.00L86.42 8.00L86.42 8.00Q87.08 7.47 88.16 7.47L88.16 7.47L88.16 7.47Q88.74 7.47 89.24 7.62L89.24 7.62L89.24 7.62Q89.75 7.77 90.02 7.93L90.02 7.93L90.02 7.93Q90.06 7.95 90.08 7.95L90.08 7.95L90.08 7.95Q90.18 7.95 90.10 7.66L90.10 7.66L90.10 7.66Q90.08 7.59 90.08 7.56L90.08 7.56L90.08 7.56Q90.08 7.42 90.26 7.42L90.26 7.42L90.62 7.42L90.62 7.42Q90.80 7.42 90.86 7.58L90.86 7.58L91.57 9.36L91.57 9.36Q91.60 9.45 91.60 9.50L91.60 9.50L91.60 9.50Q91.60 9.59 91.49 9.65L91.49 9.65L91.15 9.83L91.15 9.83Q91.08 9.86 91.04 9.86L91.04 9.86L91.04 9.86Q90.95 9.86 90.86 9.75L90.86 9.75L90.86 9.75Q90.28 9.02 89.60 8.67L89.60 8.67L89.60 8.67Q88.92 8.32 88.35 8.32L88.35 8.32L88.35 8.32Q87.93 8.32 87.65 8.49L87.65 8.49L87.65 8.49Q87.38 8.66 87.38 9.03L87.38 9.03L87.38 9.03Q87.38 9.25 87.50 9.42L87.50 9.42L87.50 9.42Q87.63 9.60 87.88 9.72L87.88 9.72L87.88 9.72Q88.13 9.84 88.36 9.92L88.36 9.92L88.36 9.92Q88.59 10.00 88.94 10.09L88.94 10.09L88.94 10.09Q90.11 10.39 90.58 10.59L90.58 10.59L90.58 10.59Q91.94 11.16 92.09 12.26L92.09 12.26L92.09 12.26Q92.10 12.39 92.10 12.53L92.10 12.53L92.10 12.53Q92.10 13.53 91.30 14.17L91.30 14.17L91.30 14.17Q90.49 14.81 89.15 14.81L89.15 14.81L89.15 14.81Q88.27 14.81 87.53 14.44L87.53 14.44L87.53 14.44Q87.45 14.41 87.40 14.41L87.40 14.41L87.40 14.41Q87.27 14.41 87.34 14.62L87.34 14.62L87.34 14.62Q87.36 14.68 87.36 14.73L87.36 14.73L87.36 14.73Q87.36 14.85 87.19 14.84L87.19 14.84L86.69 14.84L86.69 14.84Q86.53 14.84 86.45 14.70L86.45 14.70L85.24 12.44L85.24 12.44Q85.20 12.37 85.20 12.33ZM92.66 11.08L92.66 11.08L92.66 11.08Q92.66 10.33 92.85 9.71L92.85 9.71L92.85 9.71Q93.04 9.10 93.36 8.69L93.36 8.69L93.36 8.69Q93.68 8.29 94.11 8.01L94.11 8.01L94.11 8.01Q94.55 7.73 95.02 7.61L95.02 7.61L95.02 7.61Q95.48 7.49 96.00 7.49L96.00 7.49L96.00 7.49Q96.53 7.49 97.01 7.67L97.01 7.67L97.01 7.67Q97.48 7.85 97.82 8.13L97.82 8.13L97.82 8.13Q98.15 8.42 98.39 8.78L98.39 8.78L98.39 8.78Q98.64 9.14 98.76 9.50L98.76 9.50L98.76 9.50Q98.88 9.86 98.88 10.19L98.88 10.19L98.88 10.19Q98.88 10.31 98.76 10.36L98.76 10.36L94.70 12.14L94.70 12.14Q94.96 12.79 95.50 13.22L95.50 13.22L95.50 13.22Q96.04 13.64 96.80 13.64L96.80 13.64L96.80 13.64Q97.27 13.64 97.75 13.38L97.75 13.38L97.75 13.38Q98.23 13.13 98.58 12.61L98.58 12.61L98.58 12.61Q98.62 12.55 98.70 12.55L98.70 12.55L98.70 12.55Q98.79 12.55 99.26 12.82L99.26 12.82L99.26 12.82Q99.31 12.86 99.31 12.93L99.31 12.93L99.31 12.93Q99.31 13.02 99.22 13.18L99.22 13.18L99.22 13.18Q98.34 14.81 96.42 14.81L96.42 14.81L96.42 14.81Q95.29 14.81 94.42 14.30L94.42 14.30L94.42 14.30Q93.56 13.79 93.11 12.94L93.11 12.94L93.11 12.94Q92.66 12.10 92.66 11.08ZM94.74 9.05L94.74 9.05L94.74 9.05Q94.40 9.50 94.40 10.20L94.40 10.20L94.40 10.20Q94.40 10.90 94.53 11.27L94.53 11.27L96.78 10.13L96.78 10.13Q96.78 9.47 96.46 9.03L96.46 9.03L96.46 9.03Q96.14 8.59 95.66 8.59L95.66 8.59L95.66 8.59Q95.09 8.59 94.74 9.05ZM99.59 14.43L99.59 14.43L99.59 14.01L99.59 14.01Q99.59 13.80 99.80 13.80L99.80 13.80L99.83 13.80L99.83 13.80Q100.32 13.80 100.59 13.43L100.59 13.43L100.59 13.43Q100.85 13.06 100.85 12.47L100.85 12.47L100.85 10.71L100.85 10.71Q100.85 10.37 100.83 10.14L100.83 10.14L100.83 10.14Q100.80 9.92 100.73 9.67L100.73 9.67L100.73 9.67Q100.65 9.41 100.47 9.27L100.47 9.27L100.47 9.27Q100.30 9.13 100.02 9.10L100.02 9.10L100.02 9.10Q99.85 9.08 99.86 8.92L99.86 8.92L99.86 8.44L99.86 8.44Q99.86 8.29 100.06 8.26L100.06 8.26L100.06 8.26Q100.95 8.11 101.71 7.81L101.71 7.81L101.71 7.81Q102.47 7.50 102.83 7.24L102.83 7.24L102.83 7.24Q102.88 7.21 102.89 7.21L102.89 7.21L102.93 7.21L102.93 7.21Q102.94 7.21 102.94 7.23L102.94 7.23L102.61 9.11L102.61 9.11Q102.99 8.32 103.65 7.89L103.65 7.89L103.65 7.89Q104.31 7.46 105.08 7.46L105.08 7.46L105.08 7.46Q105.77 7.46 106.21 7.84L106.21 7.84L106.21 7.84Q106.66 8.22 106.66 8.91L106.66 8.91L106.66 8.91Q106.66 9.28 106.59 9.49L106.59 9.49L106.59 9.49Q106.52 9.70 106.29 9.80L106.29 9.80L104.98 10.34L104.98 10.34Q104.92 10.36 104.86 10.36L104.86 10.36L104.86 10.36Q104.73 10.36 104.73 10.23L104.73 10.23L104.73 10.23Q104.73 10.16 104.75 10.10L104.75 10.10L104.75 10.10Q104.88 9.79 104.88 9.41L104.88 9.41L104.88 9.41Q104.88 9.04 104.70 8.86L104.70 8.86L104.70 8.86Q104.52 8.68 104.22 8.68L104.22 8.68L104.22 8.68Q103.78 8.68 103.39 9.06L103.39 9.06L103.39 9.06Q103.00 9.44 102.82 9.89L102.82 9.89L102.82 12.47L102.82 12.47Q102.82 13.06 103.09 13.43L103.09 13.43L103.09 13.43Q103.35 13.80 103.84 13.80L103.84 13.80L103.87 13.80L103.87 13.80Q104.08 13.80 104.08 14.01L104.08 14.01L104.08 14.43L104.08 14.43Q104.08 14.64 103.87 14.64L103.87 14.64L99.80 14.64L99.80 14.64Q99.59 14.64 99.59 14.43ZM107.16 8.26L107.16 8.26L107.16 7.85L107.16 7.85Q107.16 7.64 107.37 7.64L107.37 7.64L110.61 7.64L110.61 7.64Q110.81 7.64 110.81 7.85L110.81 7.85L110.81 8.26L110.81 8.26Q110.81 8.48 110.61 8.48L110.61 8.48L110.58 8.48L110.58 8.48Q110.11 8.48 110.11 8.89L110.11 8.89L110.11 8.89Q110.11 9.23 110.39 9.81L110.39 9.81L111.68 12.54L112.86 9.81L112.86 9.81Q113.20 9.05 113.20 8.77L113.20 8.77L113.20 8.77Q113.20 8.48 112.89 8.48L112.89 8.48L112.62 8.48L112.62 8.48Q112.40 8.48 112.40 8.26L112.40 8.26L112.40 7.85L112.40 7.85Q112.40 7.64 112.62 7.64L112.62 7.64L115.18 7.64L115.18 7.64Q115.39 7.64 115.39 7.85L115.39 7.85L115.39 8.26L115.39 8.26Q115.39 8.48 115.18 8.48L115.18 8.48L114.98 8.48L114.98 8.48Q114.75 8.48 114.57 8.66L114.57 8.66L114.57 8.66Q114.39 8.84 114.16 9.35L114.16 9.35L111.80 14.49L111.80 14.49Q111.73 14.64 111.56 14.64L111.56 14.64L110.82 14.64L110.82 14.64Q110.64 14.64 110.57 14.49L110.57 14.49L108.21 9.36L108.21 9.36Q107.97 8.83 107.81 8.65L107.81 8.65L107.81 8.65Q107.66 8.48 107.41 8.48L107.41 8.48L107.37 8.48L107.37 8.48Q107.16 8.48 107.16 8.26ZM115.49 11.07L115.49 11.07L115.49 11.07Q115.49 10.01 116.05 9.11L116.05 9.11L116.05 9.11Q116.61 8.20 117.58 7.77L117.58 7.77L117.58 7.77Q118.25 7.47 119 7.47L119 7.47L119 7.47Q120.06 7.47 120.98 8.07L120.98 8.07L120.98 8.07Q121.90 8.66 122.36 9.69L122.36 9.69L122.36 9.69Q122.68 10.41 122.68 11.22L122.68 11.22L122.68 11.22Q122.68 12.28 122.12 13.17L122.12 13.17L122.12 13.17Q121.56 14.07 120.59 14.51L120.59 14.51L120.59 14.51Q119.90 14.81 119.16 14.81L119.16 14.81L119.16 14.81Q118.10 14.81 117.19 14.22L117.19 14.22L117.19 14.22Q116.27 13.62 115.81 12.60L115.81 12.60L115.81 12.60Q115.49 11.87 115.49 11.07ZM117.16 10.19L117.16 10.19L117.16 10.19Q117.16 10.96 117.55 11.83L117.55 11.83L117.55 11.83Q117.91 12.63 118.45 13.16L118.45 13.16L118.45 13.16Q118.99 13.69 119.60 13.69L119.60 13.69L119.60 13.69Q119.88 13.69 120.16 13.57L120.16 13.57L120.16 13.57Q121.01 13.20 121.01 12.09L121.01 12.09L121.01 12.09Q121.01 11.33 120.62 10.46L120.62 10.46L120.62 10.46Q120.26 9.65 119.71 9.12L119.71 9.12L119.71 9.12Q119.17 8.59 118.56 8.59L118.56 8.59L118.56 8.59Q118.29 8.59 118.00 8.72L118.00 8.72L118.00 8.72Q117.16 9.08 117.16 10.19ZM123.17 14.43L123.17 14.43L123.17 14.01L123.17 14.01Q123.17 13.80 123.38 13.80L123.38 13.80L123.40 13.80L123.40 13.80Q123.90 13.79 124.17 13.43L124.17 13.43L124.17 13.43Q124.42 13.07 124.42 12.52L124.42 12.52L124.42 12.52Q124.42 12.50 124.42 12.47L124.42 12.47L124.42 10.99L124.42 10.99Q124.42 10.70 124.40 10.49L124.40 10.49L124.40 10.49Q124.37 10.29 124.30 10.05L124.30 10.05L124.30 10.05Q124.22 9.81 124.04 9.67L124.04 9.67L124.04 9.67Q123.87 9.53 123.59 9.50L123.59 9.50L123.59 9.50Q123.42 9.48 123.43 9.32L123.43 9.32L123.43 8.85L123.43 8.85Q123.43 8.76 123.47 8.73L123.47 8.73L123.47 8.73Q123.52 8.70 123.63 8.66L123.63 8.66L123.63 8.66Q125.43 8.06 126.21 7.24L126.21 7.24L126.21 7.24Q126.24 7.21 126.27 7.21L126.27 7.21L126.30 7.21L126.30 7.21Q126.31 7.21 126.33 7.23L126.33 7.23L126.33 12.47L126.33 12.47Q126.33 13.06 126.59 13.43L126.59 13.43L126.59 13.43Q126.86 13.80 127.36 13.80L127.36 13.80L127.39 13.80L127.39 13.80Q127.61 13.80 127.61 14.01L127.61 14.01L127.61 14.43L127.61 14.43Q127.61 14.53 127.54 14.59L127.54 14.59L127.54 14.59Q127.47 14.64 127.37 14.64L127.37 14.64L123.41 14.64L123.41 14.64Q123.31 14.64 123.24 14.59L123.24 14.59L123.24 14.59Q123.17 14.53 123.17 14.43ZM124.30 5.33L124.30 5.33L124.30 5.33Q124.30 4.98 124.65 4.63L124.65 4.63L124.65 4.63Q125.00 4.29 125.35 4.29L125.35 4.29L125.35 4.29Q125.70 4.29 126.05 4.63L126.05 4.63L126.05 4.63Q126.40 4.99 126.40 5.33L126.40 5.33L126.40 5.33Q126.40 5.68 126.05 6.04L126.05 6.04L126.05 6.04Q125.70 6.38 125.35 6.38L125.35 6.38L125.35 6.38Q125.00 6.38 124.65 6.04L124.65 6.04L124.65 6.04Q124.30 5.69 124.30 5.33ZM128.19 14.43L128.19 14.43L128.19 14.01L128.19 14.01Q128.19 13.80 128.40 13.80L128.40 13.80L128.43 13.80L128.43 13.80Q128.93 13.80 129.19 13.43L129.19 13.43L129.19 13.43Q129.45 13.06 129.45 12.47L129.45 12.47L129.45 10.71L129.45 10.71Q129.45 10.37 129.43 10.14L129.43 10.14L129.43 10.14Q129.40 9.92 129.33 9.67L129.33 9.67L129.33 9.67Q129.25 9.41 129.08 9.27L129.08 9.27L129.08 9.27Q128.90 9.13 128.63 9.10L128.63 9.10L128.63 9.10Q128.45 9.08 128.46 8.92L128.46 8.92L128.46 8.44L128.46 8.44Q128.46 8.29 128.66 8.26L128.66 8.26L128.66 8.26Q129.55 8.11 130.31 7.81L130.31 7.81L130.31 7.81Q131.07 7.50 131.43 7.24L131.43 7.24L131.43 7.24Q131.48 7.21 131.50 7.21L131.50 7.21L131.53 7.21L131.53 7.21Q131.54 7.21 131.54 7.23L131.54 7.23L131.22 9.11L131.22 9.11Q131.59 8.32 132.25 7.89L132.25 7.89L132.25 7.89Q132.91 7.46 133.68 7.46L133.68 7.46L133.68 7.46Q134.37 7.46 134.81 7.84L134.81 7.84L134.81 7.84Q135.26 8.22 135.26 8.91L135.26 8.91L135.26 8.91Q135.26 9.28 135.19 9.49L135.19 9.49L135.19 9.49Q135.13 9.70 134.89 9.80L134.89 9.80L133.58 10.34L133.58 10.34Q133.52 10.36 133.46 10.36L133.46 10.36L133.46 10.36Q133.33 10.36 133.33 10.23L133.33 10.23L133.33 10.23Q133.33 10.16 133.36 10.10L133.36 10.10L133.36 10.10Q133.49 9.79 133.49 9.41L133.49 9.41L133.49 9.41Q133.49 9.04 133.30 8.86L133.30 8.86L133.30 8.86Q133.12 8.68 132.82 8.68L132.82 8.68L132.82 8.68Q132.38 8.68 132.00 9.06L132.00 9.06L132.00 9.06Q131.61 9.44 131.42 9.89L131.42 9.89L131.42 12.47L131.42 12.47Q131.42 13.06 131.69 13.43L131.69 13.43L131.69 13.43Q131.95 13.80 132.45 13.80L132.45 13.80L132.47 13.80L132.47 13.80Q132.69 13.80 132.69 14.01L132.69 14.01L132.69 14.43L132.69 14.43Q132.69 14.64 132.47 14.64L132.47 14.64L128.40 14.64L128.40 14.64Q128.19 14.64 128.19 14.43Z"></path></g><defs data-v-423bf9ae=""><linearGradient data-v-423bf9ae="" gradientTransform="rotate(25)" id="cf1e8382-98c3-432e-9d9b-b78b3eb142bd" x1="0%" y1="0%" x2="100%" y2="0%"><stop data-v-423bf9ae="" offset="0%" style="stop-color: rgb(180, 30, 55); stop-opacity: 1;"></stop><stop data-v-423bf9ae="" offset="100%" style="stop-color: rgb(184, 157, 173); stop-opacity: 1;"></stop></linearGradient></defs><g data-v-423bf9ae="" id="f45fc600-834b-4863-a515-6cd8cd5889b8" transform="matrix(2.8125,0,0,2.8125,310.5740042626858,0)" stroke="none" fill="url(#cf1e8382-98c3-432e-9d9b-b78b3eb142bd)"><path d="M27.377 11.377L16 0 4.623 11.377 16 22.753l11.377-11.376zM16 6.026l5.35 5.35L16 16.727l-5.35-5.35L16 6.026zM27.426 14.969l-5.664 5.664V32h5.664zM10.238 20.633l-5.664-5.664V32h5.664z"></path></g><!----></svg>